<svg width="13" height="22" viewBox="0 0 13 22" fill="none" xmlns="http://www.w3.org/2000/svg">
<path d="M4.68881 15.3403V15.5903H4.93881H7.23327H7.48327V15.3403V15.2277C7.49591 14.4517 7.57734 13.8164 7.722 13.3161C7.86551 12.8198 8.09393 12.3976 8.40534 12.045L8.40669 12.0435C8.72422 11.678 9.15256 11.3238 9.69768 10.983C10.2767 10.6276 10.7738 10.2174 11.1865 9.75155C11.6087 9.28224 11.9307 8.74889 12.1518 8.15308C12.3806 7.55361 12.4928 6.88899 12.4928 6.16252C12.4928 5.1285 12.2538 4.19809 11.7702 3.37837C11.2932 2.55901 10.6147 1.91558 9.7415 1.44891C8.87021 0.979837 7.85293 0.75 6.6979 0.75C5.63157 0.75 4.65391 0.960866 3.76923 1.38658L3.76856 1.3869C2.88764 1.81401 2.17469 2.43307 1.63355 3.24143L1.63355 3.24142L1.63276 3.24262C1.09403 4.05745 0.80301 5.03017 0.750276 6.15077L0.737959 6.41252H1H3.40918H3.6428L3.65861 6.17943C3.7075 5.45825 3.88636 4.89738 4.17817 4.4797C4.47915 4.04889 4.84933 3.73869 5.28947 3.54178C5.74225 3.33922 6.21101 3.23853 6.6979 3.23853C7.26132 3.23853 7.76704 3.35511 8.21974 3.5844C8.67103 3.81298 9.02908 4.13636 9.29793 4.55716C9.56182 4.9702 9.69837 5.46372 9.69837 6.0478C9.69837 6.52125 9.6146 6.94597 9.45109 7.32557L9.45107 7.32556L9.44981 7.32857C9.28916 7.71534 9.06989 8.05584 8.79192 8.35177C8.50796 8.64766 8.18762 8.9046 7.8303 9.1227C7.19118 9.50754 6.63934 9.93063 6.17695 10.393C5.6985 10.8715 5.33627 11.4902 5.08426 12.2396C4.83023 12.995 4.70171 13.9932 4.68883 15.223H4.68881V15.2256V15.3403ZM7.15157 20.9849L7.1531 20.984C7.44868 20.8038 7.68501 20.5643 7.85899 20.2678C8.04195 19.967 8.13337 19.6356 8.13337 19.2792C8.13337 18.7403 7.93745 18.2722 7.55345 17.8882C7.16945 17.5042 6.70142 17.3083 6.16252 17.3083C5.62363 17.3083 5.1556 17.5042 4.7716 17.8882C4.3876 18.2722 4.19168 18.7403 4.19168 19.2792C4.19168 19.8181 4.3876 20.2861 4.7716 20.6701C5.1556 21.0541 5.62363 21.25 6.16252 21.25C6.52313 21.25 6.85498 21.1629 7.15157 20.9849Z" fill="#3E3E3E" stroke="#3E3E3E" stroke-width="0.5"/>
</svg>
