<svg width="272" height="272" viewBox="0 0 272 272" fill="none" xmlns="http://www.w3.org/2000/svg">
<g opacity="0.3">
<path d="M105.303 81.9091V191H82.2386V103.802H81.5994L56.6172 119.462V99.0078L83.6236 81.9091H105.303ZM171.927 192.491C163.724 192.491 156.426 191.16 150.034 188.496C143.678 185.798 138.688 182.122 135.066 177.47C131.444 172.818 129.633 167.545 129.633 161.65C129.633 157.104 130.663 152.932 132.722 149.132C134.818 145.297 137.659 142.119 141.245 139.597C144.832 137.04 148.845 135.407 153.284 134.697V133.951C147.46 132.779 142.737 129.956 139.115 125.482C135.492 120.972 133.681 115.734 133.681 109.768C133.681 104.121 135.333 99.0966 138.635 94.6932C141.938 90.2543 146.465 86.7741 152.218 84.2528C158.007 81.696 164.576 80.4176 171.927 80.4176C179.278 80.4176 185.83 81.696 191.583 84.2528C197.371 86.8097 201.916 90.3075 205.219 94.7464C208.521 99.1499 210.191 104.157 210.226 109.768C210.191 115.769 208.344 121.007 204.686 125.482C201.029 129.956 196.341 132.779 190.624 133.951V134.697C194.992 135.407 198.951 137.04 202.502 139.597C206.089 142.119 208.93 145.297 211.025 149.132C213.156 152.932 214.239 157.104 214.274 161.65C214.239 167.545 212.41 172.818 208.788 177.47C205.166 182.122 200.159 185.798 193.767 188.496C187.41 191.16 180.13 192.491 171.927 192.491ZM171.927 175.553C175.585 175.553 178.781 174.896 181.515 173.582C184.249 172.232 186.38 170.386 187.907 168.042C189.47 165.663 190.251 162.928 190.251 159.839C190.251 156.678 189.452 153.891 187.854 151.476C186.256 149.026 184.09 147.108 181.355 145.723C178.621 144.303 175.478 143.592 171.927 143.592C168.411 143.592 165.269 144.303 162.499 145.723C159.729 147.108 157.545 149.026 155.947 151.476C154.384 153.891 153.603 156.678 153.603 159.839C153.603 162.928 154.367 165.663 155.894 168.042C157.421 170.386 159.569 172.232 162.339 173.582C165.109 174.896 168.305 175.553 171.927 175.553ZM171.927 126.813C174.981 126.813 177.698 126.192 180.077 124.949C182.456 123.706 184.32 121.984 185.67 119.782C187.019 117.58 187.694 115.041 187.694 112.165C187.694 109.324 187.019 106.838 185.67 104.707C184.32 102.541 182.474 100.854 180.13 99.647C177.786 98.4041 175.052 97.7827 171.927 97.7827C168.838 97.7827 166.103 98.4041 163.724 99.647C161.345 100.854 159.48 102.541 158.131 104.707C156.817 106.838 156.16 109.324 156.16 112.165C156.16 115.041 156.835 117.58 158.184 119.782C159.534 121.984 161.398 123.706 163.777 124.949C166.156 126.192 168.873 126.813 171.927 126.813Z" fill="#F7F7F7"/>
<circle cx="136" cy="136" r="121" stroke="#F7F7F7" stroke-width="30"/>
<path d="M49.9901 238.216L201.226 44.9999" stroke="#F7F7F7" stroke-width="30"/>
</g>
</svg>
