<svg width="36" height="34" viewBox="0 0 36 34" fill="none" xmlns="http://www.w3.org/2000/svg">
<path d="M17.1891 0.553325C17.4608 -0.184442 18.5392 -0.184442 18.8109 0.553326L21.8396 8.77723C21.9979 9.20704 22.4842 9.43362 22.9302 9.28537L31.4642 6.44889C32.2298 6.19443 32.9021 7.01017 32.4754 7.67569L27.7182 15.0942C27.4696 15.482 27.5897 15.9911 27.9875 16.236L35.6005 20.9229C36.2834 21.3434 36.0435 22.3606 35.2396 22.4527L26.2787 23.4796C25.8104 23.5333 25.4739 23.9415 25.524 24.3952L26.4832 33.0761C26.5693 33.8549 25.5977 34.3076 25.022 33.757L18.6052 27.6189C18.2699 27.2981 17.7301 27.2981 17.3948 27.6189L10.978 33.757C10.4023 34.3076 9.43071 33.8549 9.51676 33.0761L10.476 24.3952C10.5261 23.9415 10.1896 23.5333 9.72126 23.4796L0.760414 22.4527C-0.0434656 22.3606 -0.283431 21.3434 0.399527 20.9229L8.01246 16.236C8.41035 15.9911 8.53045 15.482 8.28182 15.0942L3.52463 7.67569C3.09786 7.01017 3.77023 6.19443 4.53581 6.44889L13.0698 9.28537C13.5158 9.43362 14.0021 9.20704 14.1604 8.77723L17.1891 0.553325Z" fill="#e7e7e7"/>
</svg>
