<svg width="100" height="97" viewBox="0 0 100 97" fill="none" xmlns="http://www.w3.org/2000/svg">
<path d="M45.737 2.94083C47.6884 -0.237909 52.3077 -0.237909 54.2591 2.94083L63.1593 17.4382C64.1838 19.107 66.0883 20.0242 68.0319 19.7847L84.9155 17.7041C88.6174 17.248 91.4975 20.8594 90.229 24.367L84.4436 40.3644C83.7776 42.2059 84.248 44.2668 85.6471 45.637L97.8005 57.5399C100.465 60.1498 99.4374 64.6532 95.9041 65.8484L79.7898 71.2995C77.9348 71.927 76.6168 73.5796 76.4178 75.5277L74.6892 92.451C74.3102 96.1617 70.1485 98.1659 67.011 96.1486L52.7021 86.9486C51.055 85.8895 48.9411 85.8895 47.294 86.9486L32.9851 96.1486C29.8476 98.1659 25.6859 96.1617 25.3069 92.451L23.5783 75.5277C23.3793 73.5796 22.0613 71.927 20.2063 71.2995L4.092 65.8484C0.558712 64.6532 -0.469159 60.1498 2.19564 57.5399L14.349 45.637C15.7481 44.2668 16.2184 42.2059 15.5525 40.3644L9.76713 24.367C8.49862 20.8594 11.3787 17.248 15.0806 17.7041L31.9642 19.7847C33.9078 20.0242 35.8123 19.107 36.8368 17.4382L45.737 2.94083Z" fill="#FCF32B"/>
</svg>
