<svg width="292" height="292" viewBox="0 0 292 292" fill="none" xmlns="http://www.w3.org/2000/svg">
<g clip-path="url(#clip0_1633_10847)">
<path d="M97.3333 109.5V133.833H60.8333V243.333H231.167V133.833H194.667V109.5H231.167C237.62 109.5 243.81 112.064 248.373 116.627C252.936 121.191 255.5 127.38 255.5 133.833V243.333C255.5 249.787 252.936 255.976 248.373 260.54C243.81 265.103 237.62 267.667 231.167 267.667H60.8333C54.3797 267.667 48.1905 265.103 43.6271 260.54C39.0637 255.976 36.5 249.787 36.5 243.333V133.833C36.5 127.38 39.0637 121.191 43.6271 116.627C48.1905 112.064 54.3797 109.5 60.8333 109.5H97.3333ZM156.755 30.0396L197.623 70.8953C199.906 73.1782 201.189 76.2746 201.189 79.5032C201.189 82.7318 199.906 85.8281 197.623 88.1111C195.34 90.3941 192.244 91.6766 189.015 91.6766C185.787 91.6766 182.69 90.3941 180.407 88.1111L158.167 65.8583V182.5C158.167 185.727 156.885 188.822 154.603 191.103C152.321 193.385 149.227 194.667 146 194.667C142.773 194.667 139.679 193.385 137.397 191.103C135.115 188.822 133.833 185.727 133.833 182.5V65.8583L111.593 88.1111C110.462 89.2415 109.12 90.1382 107.643 90.75C106.166 91.3617 104.583 91.6766 102.985 91.6766C101.386 91.6766 99.8031 91.3617 98.3262 90.75C96.8492 90.1382 95.5072 89.2415 94.3768 88.1111C93.2464 86.9807 92.3497 85.6387 91.738 84.1617C91.1262 82.6848 90.8113 81.1018 90.8113 79.5032C90.8113 77.9045 91.1262 76.3216 91.738 74.8446C92.3497 73.3677 93.2464 72.0257 94.3768 70.8953L135.257 30.0396C138.109 27.1903 141.975 25.5898 146.006 25.5898C150.037 25.5898 153.904 27.1903 156.755 30.0396Z" fill="#828282"/>
</g>
<defs>
<clipPath id="clip0_1633_10847">
<rect width="292" height="292" fill="white"/>
</clipPath>
</defs>
</svg>
